<svg width="50" height="50" viewBox="0 0 182 153" fill="none" xmlns="http://www.w3.org/2000/svg">
<path d="M98.5537 32.7949H101.309L102.997 33.1978L104.241 33.7617L105.396 34.5674L107.44 36.4204L108.062 37.0649L109.573 38.4346L110.195 39.0791L110.995 39.8042L111.617 40.4487L112.417 41.1738L113.039 41.8184L114.105 42.7852L114.728 43.4297L115.972 44.6382L116.949 45.605L117.66 46.2495L118.282 46.894L119.082 47.6997L119.704 48.3442L120.771 49.4722L121.926 50.6807L123.081 51.9697L123.792 53.1782L124.059 53.9839L124.147 54.9507L123.792 56.2397L123.17 57.126L122.281 57.8511L121.037 58.415L119.793 58.6567L119.171 58.7373L116.771 58.8179L112.772 58.8984L103.975 58.979L100.598 59.0596L99.5312 59.3013L98.8203 59.8652L98.4648 60.5098L98.1094 61.7988L97.2207 66.6328L95.9766 73.0781L94.999 77.8315L94.377 80.4902L93.9326 81.6987L93.3994 82.5044L92.5996 83.2295L91.8887 83.6323L91 83.874H90.1113L89.2227 83.5518L88.4229 82.9878L87.8008 82.1016L87.4453 81.0542V79.6846L88.4229 72.353L90.0225 60.3486V59.7041L89.667 59.2207L89.2227 58.979L88.6006 58.8984L86.3789 58.8179H84.4238L83.5352 58.979L82.9131 59.3818L82.5576 60.1875L81.6689 65.1021L80.2471 73.1587L77.9365 86.0493L77.2256 90.0776L76.1592 95.959L74.915 103.129L74.3818 105.708L74.0264 106.594L73.6709 107.077L73.3154 107.48L72.5156 107.963L71.627 108.205H70.5605L69.7607 107.963L68.8721 107.238L68.3389 106.433L68.1611 105.788V104.096L68.8721 97.4092L69.7607 89.1914L70.5605 82.021L71.3604 74.4478L72.3379 65.666L72.8711 60.832V59.543L72.5156 59.0596L71.8047 58.7373L71.3604 58.6567L64.251 58.5762L62.7402 58.3345L61.4072 57.9316L59.9854 57.2871L58.9189 56.4009L58.3857 55.7563L57.9414 54.7896L57.8525 54.4673V53.7422L58.208 52.856L58.7412 52.292L59.6299 51.8086L60.252 51.6475L64.6953 51.3252L78.5586 50.3584L89.3115 49.6333L91 49.3916L91.5332 49.0693L91.9775 48.2637L92.4219 46.3301L93.5771 40.5293L94.5547 35.6147L94.9102 34.6479L95.5322 33.8423L96.4209 33.2783L97.8428 32.8755L98.5537 32.7949Z" fill="white"/>
<path d="M102.286 41.8989H102.908L103.619 42.3823L109.04 47.2969L109.307 47.6997L109.218 48.2637L108.773 48.5859L107.352 48.7471L103.619 48.9082H102.642L101.842 48.6665L101.22 48.1831L100.953 47.6997V46.4912L101.397 43.8325L101.575 42.7046L102.108 41.9795L102.286 41.8989Z" fill="#222e50"/>
</svg>
